<svg clip-rule="evenodd" fill-rule="evenodd" image-rendering="optimizeQuality" shape-rendering="geometricPrecision" text-rendering="geometricPrecision" version="1.1" viewBox="0 0 89604 85891" xml:space="preserve" xmlns="http://www.w3.org/2000/svg">
 <defs>
  <style type="text/css">
   <![CDATA[
    .fil0 {fill:gray}
   ]]>
  </style>
 </defs>
 
  
  <path class="fil0" d="m44802 2.37c-24744 0-44802 17592-44802 39291s20059 39291 44802 39291c2657 0 5259.1-203.99 7789.1-592.93 1068.4 66.41 2358.2 310.89 4234.4 950.12 5608.1 1910.8 13142 6278.3 27199 6930.8 4107.9 190.76 5897.6-1001.7 2344.7-4376.7-6077-5772.9-7540.1-7214.9-9790.1-14508 8049.4-7103.5 13024-16889 13024-27697 0-21700-20059-39291-44802-39291l.26 2.37zm6985 24722h11856c901.44 0 1638.8 737.39 1638.8 1638.8v12018c0 14360-4109.8 16799-14974 19465v-6948.2c4194.7-1404.7 6525.7-4949.3 6781.3-10878h-5302.2c-901.44 0-1638.8-737.39-1638.8-1638.8v-12018c0-901.44 737.39-1638.8 1638.8-1638.8zm-24768 0h11856c901.44 0 1638.8 737.39 1638.8 1638.8v12018c0 14360-4109.8 16799-14974 19465v-6948.2c4194.7-1404.7 6525.7-4949.3 6781.3-10878h-5302.3c-901.44 0-1638.8-737.39-1638.8-1638.8v-12018c0-901.44 737.39-1638.8 1638.8-1638.8z"/>
 
</svg>
