<svg width="33.867mm" height="33.184mm" clip-rule="evenodd" fill-rule="evenodd" image-rendering="optimizeQuality" shape-rendering="geometricPrecision" text-rendering="geometricPrecision" version="1.1" viewBox="0 0 3321.7 3254.8" xml:space="preserve" xmlns="http://www.w3.org/2000/svg">
 <defs>
  <style type="text/css">
   <![CDATA[
    .fil0 {fill:#F28C00;fill-rule:nonzero}
   ]]>
  </style>
 </defs>
 
  
  <path class="fil0" d="m2832.1 1627.4c0-116.73 94.63-211.35 211.36-211.35 116.72 0 211.35 94.62 211.35 211.35 0 449.37-182.16 856.23-476.67 1150.7-294.51 294.51-701.37 476.67-1150.7 476.67s-856.23-182.16-1150.7-476.67c-294.51-294.5-476.68-701.36-476.68-1150.7s182.17-856.23 476.68-1150.7c294.5-294.5 701.36-476.67 1150.7-476.67 112.81 0 224.64 12.03 334.16 34.94 110.93 23.19 217.69 57.66 319 102.16 106.69 46.5 155.49 170.7 108.98 277.4-46.51 106.69-170.7 155.49-277.4 108.98-75.15-33-154.28-58.57-236.45-75.75-78.47-16.4-161.46-25.02-248.3-25.02-332.68 0-633.88 134.84-851.86 352.83-218 218-352.84 519.19-352.84 851.87s134.84 633.88 352.84 851.86c217.99 218 519.18 352.84 851.86 352.84s633.88-134.84 851.87-352.84c218-217.99 352.83-519.18 352.83-851.86zm128.85-1160.4c82.53-82.53 216.34-82.53 298.87 0 82.53 82.54 82.53 216.34 0 298.87l-1564 1564c-82.53 82.54-216.33 82.54-298.87 0l-664.64-664.64c-82.53-82.53-82.53-216.34 0-298.87s216.34-82.53 298.87 0l515.22 515.22 1414.6-1414.6z"/>
 
</svg>
