<svg clip-rule="evenodd" fill-rule="evenodd" image-rendering="optimizeQuality" shape-rendering="geometricPrecision" text-rendering="geometricPrecision" version="1.1" viewBox="0 0 6244.2 6244.2" xml:space="preserve" xmlns="http://www.w3.org/2000/svg">
 <defs>
  <style type="text/css">
   <![CDATA[
    .fil0 {fill:#FDB32F}
   ]]>
  </style>
 </defs>
 
  
  <path class="fil0" d="m316.04 0h5612.1c173.83 0 316.04 142.21 316.04 316.04v5612.1c0 173.83-142.21 316.04-316.04 316.04h-5612.1c-173.83 0-316.04-142.21-316.04-316.04v-5612.1c0-173.83 142.21-316.04 316.04-316.04zm1484.4 1208.8c80.26-12.39 161.67-39.88 243.35-22.72 51.6 22.33 78.44 76 107.72 120.77 95.87 174.45 190.59 349.66 289.42 522.57 47.47 84.89 119.73 157.15 147.21 252.36 15.74 50.97-12.64 101.41-46.06 138.19-103.35 129.15-250.69 211.09-365.66 328.38-36.65 35.35-73.94 75.73-83.09 127.73 1.03 46.32 23.09 88.5 42.97 129.28 137.8 241.4 284.37 481.01 475.72 684.48 203.21 222.84 450.43 401.92 711.96 550.3 68.77 42.06 137.42 88.25 216.64 107.86 43.21 11.61 83.21-17.16 115.34-42.45 128.25-112.76 213.54-265.4 340.63-379.46 42.06-37.42 91.09-83.23 152.51-72.77 92.25 19.86 162.7 87.48 241.14 135.34 180.39 105.04 364.89 202.7 547.08 304.51 46.18 29.02 102.44 56.38 121.93 111.34 14.57 81.28-11.36 161.81-24.26 241.41-26.19 102.97-53.29 212.12-131.22 289.53-110.18 105.68-244.51 182.71-383.21 244.9-79.73 29.54-160.38 60-245.79 67.61l-6.97 7.36c-103.35 7.22-208.76 17.02-310.7-6.59-189.79-31.48-366.69-109.41-546.42-174.44-195.85-74.06-387.58-161.54-561-279.85-162.44-104.78-310.57-229.42-455.6-356.77-64.12-56.76-120.5-121.67-186.95-175.86-49.03-49.79-92.9-104.26-144.38-151.74-238.83-255.98-457.27-536.62-603.46-856.6-58.44-137.4-111.98-276.76-162.44-417.26-48.38-119.35-82.84-243.99-106.69-370.44-12.53-98.44-14.47-200.12 4.25-297.66 28.64-183.6 111.09-354.56 215.07-506.94 45.04-61.54 90.84-125.8 157.04-166.06 69.54-48 154.18-63.74 233.92-86.31z"/>
 
</svg>
