<?xml version="1.0" encoding="UTF-8" standalone="no"?>
<!-- Creator: CorelDRAW 2021.5 -->

<svg
   xml:space="preserve"
   width="100%"
   height="100%"
   version="1.1"
   style="shape-rendering:geometricPrecision; text-rendering:geometricPrecision; image-rendering:optimizeQuality; fill-rule:evenodd; clip-rule:evenodd"
   viewBox="0 0 6244.17 6244.17"
   id="svg1"
   xmlns="http://www.w3.org/2000/svg"
   xmlns:svg="http://www.w3.org/2000/svg">
 <defs
   id="defs1">
  <style
   type="text/css"
   id="style1">
   <![CDATA[
    .fil0 {fill:#FDB32F}
   ]]>
  </style>
 </defs>
 <g
   id="Слой_x0020_1">
  <metadata
   id="CorelCorpID_0Corel-Layer" />
  <path
   class="fil0"
   d="M316.04 0l5612.09 0c173.83,0 316.04,142.21 316.04,316.04l0 5612.09c0,173.83 -142.21,316.04 -316.04,316.04l-5612.09 0c-173.83,0 -316.04,-142.21 -316.04,-316.04l0 -5612.09c0,-173.83 142.21,-316.04 316.04,-316.04zm2806.03 1009.79c1166.6,0 2112.31,945.71 2112.31,2112.31 0,1166.58 -945.71,2112.29 -2112.31,2112.29 -1166.58,0 -2112.29,-945.71 -2112.29,-2112.29 0,-1166.6 945.71,-2112.31 2112.29,-2112.31zm1231.7 3057.47c99.35,101.01 98.01,263.48 -3.01,362.83 -101.04,99.36 -263.48,98.03 -362.85,-3.01l-1106.9 -1129.48c-49.14,-49.97 -73.64,-114.97 -73.64,-179.92l-0.74 0 0 -1232.16c0,-142.11 115.2,-257.31 257.3,-257.31 142.11,0 257.31,115.2 257.31,257.31l0 1128.07 1032.53 1053.67z"
   id="path1" />
 </g>
</svg>
